<?xml version="1.0" encoding="utf-8"?>
<!-- Generator: Adobe Illustrator 17.0.0, SVG Export Plug-In . SVG Version: 6.00 Build 0)  -->
<!DOCTYPE svg PUBLIC "-//W3C//DTD SVG 1.1//EN" "http://www.w3.org/Graphics/SVG/1.1/DTD/svg11.dtd">
<svg version="1.1" id="Capa_1" xmlns="http://www.w3.org/2000/svg" xmlns:xlink="http://www.w3.org/1999/xlink" x="0px" y="0px"
	 width="512px" height="417px" viewBox="0 0 512 417" enable-background="new 0 0 512 417" xml:space="preserve">
<g id="Capa_1_1_">
	<title>ionicons-v5-o</title>
</g>
<title>ionicons-v5-o</title>
<path d="M441.115,14.571H70.887C36.823,14.607,9.219,42.212,9.182,76.276v264.448c0.036,34.064,27.641,61.668,61.705,61.705h370.227
	c34.064-0.036,61.668-27.641,61.705-61.705V76.276C502.783,42.212,475.177,14.607,441.115,14.571z M427.996,114.189
	c-0.739,0.881-1.575,1.702-2.506,2.448L266.821,240.046c-6.365,4.948-15.275,4.948-21.64,0L86.511,116.637
	c-0.203-0.154-0.385-0.325-0.579-0.485c-3.992-3.289-6.202-7.994-6.41-12.833c-0.17-3.948,0.979-7.976,3.545-11.377
	c5.867-7.77,16.922-9.311,24.693-3.444c0.132,0.101,0.263,0.202,0.392,0.305l147.85,114.991L403.847,88.806
	c0.661-0.499,1.352-0.924,2.055-1.317c7.564-4.225,17.272-2.351,22.641,4.76C433.575,98.913,433.168,108.021,427.996,114.189z"/>
</svg>
