<?xml version="1.0" encoding="utf-8"?>
<!-- Generator: Adobe Illustrator 17.0.0, SVG Export Plug-In . SVG Version: 6.00 Build 0)  -->
<!DOCTYPE svg PUBLIC "-//W3C//DTD SVG 1.1//EN" "http://www.w3.org/Graphics/SVG/1.1/DTD/svg11.dtd">
<svg version="1.1" id="Capa_1" xmlns="http://www.w3.org/2000/svg" xmlns:xlink="http://www.w3.org/1999/xlink" x="0px" y="0px"
	 width="323px" height="424px" viewBox="-442 -92 323 424" enable-background="new -442 -92 323 424" xml:space="preserve">
<path d="M-136.211,38.648c-7.918-59.051-52.231-108.073-110.29-121.7c-7.69-1.805-15.583-2.743-23.383-4.082
	c-7.013,0-14.025,0-21.037,0.001c-1.028,0.237-2.045,0.588-3.087,0.696C-334.48-82.255-367.992-64.615-393.432-33
	c-40.048,49.768-43.485,115.509-9.759,169.887c37.497,60.456,75.036,120.886,112.483,181.372c2.414,3.899,5.158,7.168,9.496,8.874
	c1.887,0,3.775,0,5.663,0c2.855-2.516,6.564-4.517,8.437-7.624c37.333-61.958,74.54-123.994,111.581-186.127
	C-138.086,104.124-131.675,72.475-136.211,38.648z M-353.216,58.537c-0.009-40.137,32.686-72.845,72.813-72.844
	c40.144,0.001,72.826,32.698,72.813,72.844c-0.013,40.275-32.515,72.767-72.809,72.783
	C-320.617,131.337-353.208,98.761-353.216,58.537z M-401.924,56.81c-0.001,0.077-0.004,0.154-0.005,0.231
	C-401.928,56.965-401.925,56.888-401.924,56.81z"/>
</svg>
