<?xml version="1.0" encoding="utf-8"?>
<!-- Generator: Adobe Illustrator 17.0.0, SVG Export Plug-In . SVG Version: 6.00 Build 0)  -->
<!DOCTYPE svg PUBLIC "-//W3C//DTD SVG 1.1//EN" "http://www.w3.org/Graphics/SVG/1.1/DTD/svg11.dtd">
<svg version="1.1" id="Capa_1" xmlns="http://www.w3.org/2000/svg" xmlns:xlink="http://www.w3.org/1999/xlink" x="0px" y="0px"
	 width="288px" height="284.502px" viewBox="0 0 288 284.502" enable-background="new 0 0 288 284.502" xml:space="preserve">
<path d="M204.78,101.27c0-6.954-2.256-13.121-6.502-18.582c-2.322-2.987-4.736-5.904-7.01-8.925
	c-4.933-6.549-5.087-14.833-0.087-21.336c10.288-13.379,20.646-26.704,31.16-39.905c6.992-8.782,18.846-9.238,26.836-1.3
	c7.501,7.454,14.758,15.175,22.524,22.34c7.235,6.674,9.392,14.888,8.889,24.191c-0.722,13.334-5.416,25.515-11.266,37.301
	c-10.767,21.697-25.104,40.982-40.82,59.256c-27.654,32.156-57.765,61.793-91.491,87.606
	c-16.984,12.999-34.808,24.688-55.059,32.097c-9.621,3.519-19.469,5.967-29.881,4.446c-5.641-0.824-10.554-3.053-14.616-7.13
	c-8.013-8.041-16.101-16.006-24.1-24.062c-8.678-8.741-7.895-20.336,1.876-27.966c12.537-9.791,25.101-19.55,37.675-29.293
	c8.202-6.356,16.229-6.267,24.383,0.196c2.28,1.807,4.545,3.635,6.842,5.423c13.061,10.184,29.375,9.28,41.127-2.394
	c18.311-18.19,36.556-36.443,54.828-54.669c5.222-5.207,10.479-10.378,15.652-15.633C201.911,116.66,204.806,109.611,204.78,101.27z
	"/>
</svg>
