<?xml version="1.0" encoding="utf-8"?>
<!-- Generator: Adobe Illustrator 17.0.0, SVG Export Plug-In . SVG Version: 6.00 Build 0)  -->
<!DOCTYPE svg PUBLIC "-//W3C//DTD SVG 1.1//EN" "http://www.w3.org/Graphics/SVG/1.1/DTD/svg11.dtd">
<svg version="1.1" id="Capa_1" xmlns="http://www.w3.org/2000/svg" xmlns:xlink="http://www.w3.org/1999/xlink" x="0px" y="0px"
	 width="432.259px" height="433.654px" viewBox="0 0 432.259 433.654" enable-background="new 0 0 432.259 433.654"
	 xml:space="preserve">
<circle fill="#FFFFFF" cx="220.63" cy="210.327" r="156"/>
<g id="Capa_3">
</g>
<g id="Capa_1_1_">
	<path fill="#FFFFFF" d="M429.988,184.093c-5.827-42.428-23.212-80.051-52.07-111.759C328.98,18.563,267.76-5.319,195.43,0.989
		c-41.746,3.64-79.29,19.245-112.007,45.581C37.796,83.299,10.775,130.847,3.429,188.974c-5.78,45.726,2.814,89.066,24.848,129.617
		c1.567,2.884,1.735,5.387,0.891,8.451C19.453,362.317,9.841,397.62,0,433.654c1.422-0.225,2.064-0.272,2.677-0.431
		c35.789-9.223,71.586-18.421,107.345-27.758c2.805-0.732,5.114-0.585,7.612,0.753c4.637,2.484,9.278,5.131,14.066,7.13
		c11.344,4.734,23.017,8.553,35.103,11.278c30.471,6.87,61.032,7.98,91.614,1.751c52.738-10.742,96.058-37.292,128.863-79.985
		C424.143,298.419,438.206,243.926,429.988,184.093z"/>
	<path fill="#FFB039" d="M51.478,382.33c5.798-21.154,11.461-42.085,17.346-62.952c0.72-2.555-0.309-4.17-1.451-5.901
		c-13.712-20.797-22.915-43.511-26.847-68.014c-7.115-44.344,0.385-86.202,24.36-124.479c26.951-43.028,65.56-70.509,115.107-80.906
		c51.36-10.777,99.409-0.948,141.921,30.233c36.512,26.78,60.458,62.539,70.012,107.189c2.553,11.931,3.439,24.08,3.496,36.417
		c0.139,29.797-6.034,57.905-20.209,84.075c-6.401,11.818-14.039,22.853-22.856,33.148c-26.365,30.784-59.173,50.941-98.767,59.023
		c-44.843,9.154-87.642,2.514-127.166-20.99c-6.879-4.09-12.576-2.828-18.997-1.132c-18.263,4.825-36.512,9.704-54.773,14.54
		C52.378,382.654,52.029,382.455,51.478,382.33z M274.877,318.017c3.034-0.171,5.745-0.042,8.347-0.516
		c22.729-4.133,42.808-18.031,42.732-45.793c-0.009-3.259-0.384-6.317-3.803-8.03c-14.95-7.489-29.812-15.178-45.347-21.4
		c-3.105-1.244-7.028-2.049-9.658,1.059c-4.756,5.619-9.338,11.413-13.621,17.4c-4.97,6.947-10.061,9.362-15.841,7.075
		c-31.202-12.344-54.805-33.497-72.081-62.015c-3.8-6.272-3.522-7.946,1.507-13.571c4.762-5.326,9.771-10.498,12.688-17.2
		c0.937-2.153,1.986-4.335,1.01-6.706c-6.263-15.22-12.472-30.464-18.939-45.597c-1.804-4.222-5.477-6.248-10.161-6.994
		c-15.484-2.467-26.374,3.79-34.218,16.874c-10.772,17.969-12.307,36.778-5.901,56.482c5.284,16.254,15.02,29.982,24.997,43.507
		c24.337,32.993,53.212,60.375,92.894,74.235C244.385,312.032,259.135,317.766,274.877,318.017z"/>
	<path fill="#FFFFFF" d="M274.877,318.017c-15.742-0.251-30.493-5.984-45.395-11.19c-39.682-13.86-68.557-41.243-92.894-74.235
		c-9.977-13.526-19.713-27.253-24.997-43.507c-6.406-19.704-4.871-38.513,5.901-56.482c7.844-13.084,18.733-19.341,34.218-16.874
		c4.684,0.746,8.357,2.773,10.161,6.994c6.468,15.133,12.676,30.377,18.939,45.597c0.976,2.371-0.073,4.553-1.01,6.706
		c-2.918,6.702-7.926,11.875-12.688,17.2c-5.03,5.625-5.307,7.299-1.507,13.571c17.276,28.518,40.88,49.67,72.081,62.015
		c5.78,2.287,10.871-0.128,15.841-7.075c4.283-5.987,8.865-11.78,13.621-17.4c2.631-3.108,6.553-2.303,9.658-1.059
		c15.535,6.223,30.397,13.911,45.347,21.4c3.419,1.713,3.795,4.771,3.803,8.03c0.075,27.762-20.003,41.66-42.732,45.793
		C280.623,317.974,277.911,317.845,274.877,318.017z"/>
</g>
<g id="Capa_2">
</g>
<g id="Capa_1_2_">
	<path fill="#FFFFFF" d="M469.001,433.654c9.841-36.034,19.453-71.337,29.168-106.612c0.844-3.064,0.676-5.567-0.891-8.451
		C475.244,278.04,466.65,234.7,472.43,188.974c7.346-58.127,34.367-105.675,79.994-142.404
		c32.717-26.336,70.261-41.941,112.007-45.581c72.33-6.308,133.55,17.574,182.488,71.345c28.858,31.708,46.243,69.331,52.07,111.759
		c8.218,59.833-5.845,114.326-42.708,162.299c-32.805,42.693-76.125,69.243-128.863,79.985c-30.582,6.229-61.143,5.119-91.614-1.751
		c-12.086-2.725-23.759-6.544-35.103-11.278c-4.788-1.999-9.429-4.646-14.066-7.13c-2.498-1.338-4.807-1.485-7.612-0.753
		c-35.759,9.337-71.556,18.535-107.345,27.758C471.065,433.382,470.423,433.429,469.001,433.654z M520.479,382.33
		c0.551,0.125,0.9,0.324,1.177,0.251c18.26-4.837,36.509-9.716,54.773-14.54c6.421-1.696,12.118-2.958,18.997,1.132
		c39.525,23.504,82.323,30.144,127.166,20.99c39.595-8.082,72.402-28.239,98.767-59.023c8.817-10.295,16.455-21.33,22.856-33.148
		c14.175-26.171,20.349-54.278,20.209-84.075c-0.058-12.337-0.943-24.486-3.496-36.417c-9.555-44.65-33.5-80.409-70.012-107.189
		c-42.512-31.181-90.561-41.009-141.921-30.233c-49.546,10.396-88.156,37.877-115.107,80.906
		c-23.975,38.277-31.475,80.135-24.36,124.479c3.931,24.503,13.134,47.217,26.847,68.014c1.142,1.732,2.171,3.347,1.451,5.901
		C531.94,340.245,526.276,361.175,520.479,382.33z"/>
	<path fill="#FFB039" d="M860.927,177.5c-9.554-44.65-33.5-80.409-70.012-107.189c-42.512-31.181-90.561-41.01-141.921-30.233
		c-49.547,10.397-88.156,37.878-115.107,80.906c-23.975,38.277-31.475,80.135-24.36,124.479
		c3.932,24.503,13.135,47.217,26.847,68.014c1.142,1.731,2.171,3.346,1.451,5.901c-5.885,20.867-11.548,41.798-17.346,62.952
		c0.551,0.125,0.9,0.324,1.176,0.251c18.261-4.836,36.51-9.715,54.773-14.54c6.421-1.696,12.118-2.958,18.997,1.132
		c39.524,23.504,82.323,30.144,127.166,20.99c39.594-8.082,72.402-28.239,98.767-59.023c8.817-10.295,16.455-21.33,22.856-33.148
		c14.175-26.17,20.348-54.278,20.209-84.075C864.365,201.58,863.48,189.431,860.927,177.5z"/>
	<g>
		<path fill="#FFFFFF" d="M764.694,273.669c0,16.352,0.356,31.449-0.131,46.518c-0.301,9.31-9.625,16.813-19.599,16.822
			c-32.655,0.029-65.311,0.011-97.966,0.011c-20.16,0-40.32,0.008-60.479-0.003c-12.571-0.007-20.813-8.276-20.815-20.895
			c-0.007-52.982,0.026-105.964-0.077-158.945c-0.006-3.128,0.952-5.16,3.199-7.28c19.021-17.951,37.944-36.007,56.805-54.126
			c2.076-1.994,4.126-2.824,7.017-2.817c37.32,0.093,74.641,0.048,111.961,0.069c11.725,0.006,19.377,8.354,20.308,19.948
			c1.125,14.004-1.67,26.466-10.183,37.716c-2.421,3.2-4.105,6.957-6.89,10.192c0-14.917-0.162-29.837,0.096-44.749
			c0.08-4.651-1.035-6.31-6.048-6.275c-32.321,0.229-64.644,0.178-96.966,0.034c-3.458-0.015-4.473,0.735-4.373,4.303
			c0.274,9.822,0.124,19.657,0.088,29.487c-0.047,13.152-8.332,21.335-21.547,21.339c-10.83,0.003-21.66,0.08-32.488-0.054
			c-2.766-0.034-4.022,0.24-4.013,3.635c0.133,48.983,0.123,97.966,0.028,146.949c-0.007,3.539,1.164,4.577,4.613,4.572
			c51.982-0.082,103.964-0.081,155.947-0.001c3.384,0.005,4.979-0.909,4.686-4.507c-0.755-9.264-0.342-17.928,6.874-25.43
			C758.802,285.959,761.014,279.955,764.694,273.669z"/>
		<path fill="#FFFFFF" d="M810.827,165.574c-0.459,0.843-0.916,1.724-1.412,2.583c-20.349,35.259-40.731,70.498-60.994,105.806
			c-1.611,2.807-2.781,3.035-5.539,1.371c-9.914-5.98-19.993-11.69-30.077-17.382c-2.13-1.202-2.768-1.96-1.309-4.472
			c20.693-35.631,41.26-71.336,61.761-107.079c1.336-2.33,2.324-2.491,4.541-1.178c10.249,6.072,20.608,11.959,30.908,17.947
			C809.614,163.698,811.005,163.925,810.827,165.574z"/>
		<path fill="#FFFFFF" d="M665.191,171.016c18.993,0,37.986,0.077,56.977-0.071c3.403-0.027,4.956,0.335,4.791,4.425
			c-0.349,8.68-0.071,8.693-8.911,8.693c-36.486,0.001-72.972-0.041-109.457,0.067c-3.537,0.01-5.234-0.371-5.038-4.654
			c0.387-8.446,0.092-8.46,8.658-8.46C629.871,171.016,647.531,171.016,665.191,171.016z"/>
		<path fill="#FFFFFF" d="M721.375,208.343c-2.499,4.362-4.655,7.857-6.524,11.499c-0.985,1.92-2.457,1.865-4.15,1.865
			c-34.494-0.015-68.987-0.044-103.481,0.05c-2.822,0.008-3.623-0.738-3.651-3.595c-0.098-9.82-0.222-9.819,9.362-9.819
			C648.733,208.343,684.536,208.343,721.375,208.343z"/>
		<path fill="#FFFFFF" d="M699.038,245.973c0.059,0.644,0.139,0.836,0.078,0.954c-6.258,12.093-6.258,12.093-20.001,12.093
			c-23.627,0-47.254-0.082-70.88,0.087c-3.597,0.026-4.815-0.64-4.67-4.527c0.322-8.599,0.076-8.607,8.473-8.607
			C640.986,245.973,669.936,245.973,699.038,245.973z"/>
		<path fill="#FFFFFF" d="M647.441,296.24c-13.141,0-26.284-0.119-39.423,0.082c-3.334,0.051-4.535-0.555-4.443-4.21
			c0.226-9.01,0.018-9.015,9.054-9.015c23.954,0,47.91,0.159,71.86-0.138c4.628-0.057,5.804,1.532,6.127,5.64
			c0.6,7.655,0.777,7.641-6.745,7.641C671.728,296.24,659.584,296.24,647.441,296.24z"/>
		<path fill="#FFFFFF" d="M689.702,146.92c-11.161,0-22.323-0.096-33.481,0.066c-2.822,0.041-3.578-0.739-3.596-3.564
			c-0.061-9.597-0.185-9.596,9.461-9.597c20.156,0,40.313,0.09,60.467-0.088c3.449-0.03,4.472,0.737,4.381,4.301
			c-0.227,8.873-0.029,8.88-8.747,8.881C708.692,146.922,699.197,146.92,689.702,146.92z"/>
		<path fill="#FFFFFF" d="M797.75,115.963c1.873-0.262,3.739,0.391,5.485,1.397c5.441,3.134,10.912,6.22,16.274,9.485
			c6.414,3.905,7.889,9.544,4.415,16.12c-5.684,10.759-5.673,10.741-16.169,4.636c-7.851-4.567-15.678-9.181-23.636-13.554
			c-2.307-1.268-2.658-2.275-1.206-4.433c1.842-2.738,3.268-5.753,5.073-8.519C790.203,117.695,793.319,115.724,797.75,115.963z"/>
		<path fill="#FFFFFF" d="M704.587,268.224c11.702,6.76,22.633,13.076,34.125,19.714c-8.389,6.065-16.84,10.602-26.329,13.003
			c-2.913,0.737-5.076-0.271-5.944-3.58C703.979,287.991,703.155,278.561,704.587,268.224z"/>
	</g>
</g>
<g>
	<circle fill="#FFFFFF" cx="1141.13" cy="216.827" r="215.29"/>
	<circle fill="#FFB039" cx="1141.13" cy="216.827" r="179.126"/>
	<g>
		<path fill="#FFFFFF" d="M1219.855,275.26c0,16.352,0.356,31.449-0.131,46.518c-0.301,9.31-9.625,16.813-19.599,16.822
			c-32.655,0.029-65.311,0.011-97.966,0.011c-20.16,0-40.319,0.008-60.479-0.003c-12.571-0.007-20.813-8.276-20.815-20.895
			c-0.007-52.982,0.026-105.964-0.077-158.945c-0.006-3.128,0.952-5.16,3.199-7.28c19.021-17.951,37.944-36.007,56.805-54.126
			c2.076-1.994,4.126-2.824,7.016-2.817c37.32,0.093,74.641,0.048,111.962,0.069c11.725,0.006,19.377,8.354,20.308,19.948
			c1.125,14.004-1.67,26.466-10.183,37.716c-2.421,3.2-4.105,6.957-6.89,10.192c0-14.917-0.162-29.837,0.096-44.749
			c0.08-4.651-1.035-6.31-6.048-6.275c-32.321,0.229-64.644,0.178-96.966,0.034c-3.458-0.015-4.473,0.735-4.373,4.303
			c0.274,9.822,0.124,19.657,0.088,29.487c-0.047,13.152-8.332,21.335-21.547,21.339c-10.83,0.003-21.66,0.08-32.488-0.054
			c-2.766-0.034-4.022,0.24-4.013,3.635c0.133,48.983,0.123,97.966,0.028,146.949c-0.007,3.539,1.163,4.577,4.613,4.572
			c51.982-0.082,103.964-0.081,155.947-0.001c3.384,0.005,4.979-0.909,4.686-4.507c-0.755-9.264-0.342-17.928,6.874-25.43
			C1213.963,287.55,1216.175,281.546,1219.855,275.26z"/>
		<path fill="#FFFFFF" d="M1265.988,167.165c-0.459,0.843-0.916,1.724-1.412,2.583c-20.349,35.259-40.731,70.498-60.994,105.806
			c-1.611,2.807-2.781,3.035-5.539,1.371c-9.914-5.98-19.993-11.69-30.077-17.382c-2.13-1.202-2.768-1.96-1.309-4.472
			c20.693-35.631,41.26-71.336,61.761-107.079c1.336-2.33,2.324-2.491,4.541-1.178c10.249,6.072,20.608,11.959,30.908,17.947
			C1264.775,165.289,1266.166,165.516,1265.988,167.165z"/>
		<path fill="#FFFFFF" d="M1120.352,172.607c18.993,0,37.986,0.077,56.977-0.071c3.403-0.027,4.956,0.335,4.791,4.425
			c-0.349,8.68-0.071,8.693-8.911,8.693c-36.486,0.001-72.972-0.041-109.457,0.067c-3.537,0.01-5.234-0.371-5.038-4.654
			c0.387-8.446,0.092-8.46,8.658-8.46C1085.032,172.607,1102.692,172.607,1120.352,172.607z"/>
		<path fill="#FFFFFF" d="M1176.536,209.934c-2.499,4.362-4.655,7.857-6.524,11.499c-0.985,1.92-2.457,1.865-4.15,1.865
			c-34.494-0.015-68.987-0.044-103.481,0.05c-2.822,0.008-3.623-0.738-3.651-3.595c-0.098-9.82-0.222-9.819,9.362-9.819
			C1103.894,209.934,1139.697,209.934,1176.536,209.934z"/>
		<path fill="#FFFFFF" d="M1154.198,247.564c0.059,0.644,0.139,0.836,0.078,0.954c-6.258,12.093-6.258,12.093-20.001,12.093
			c-23.627,0-47.255-0.082-70.88,0.087c-3.597,0.026-4.815-0.64-4.67-4.527c0.322-8.599,0.076-8.607,8.473-8.607
			C1096.147,247.564,1125.097,247.564,1154.198,247.564z"/>
		<path fill="#FFFFFF" d="M1102.602,297.831c-13.141,0-26.285-0.119-39.423,0.082c-3.334,0.051-4.535-0.555-4.443-4.21
			c0.226-9.01,0.018-9.015,9.054-9.015c23.954,0,47.91,0.159,71.86-0.138c4.628-0.057,5.804,1.532,6.127,5.64
			c0.6,7.655,0.777,7.641-6.745,7.641C1126.889,297.831,1114.745,297.831,1102.602,297.831z"/>
		<path fill="#FFFFFF" d="M1144.863,148.511c-11.161,0-22.323-0.096-33.481,0.066c-2.822,0.041-3.578-0.739-3.596-3.564
			c-0.061-9.597-0.185-9.596,9.461-9.597c20.156,0,40.313,0.09,60.467-0.088c3.449-0.03,4.472,0.737,4.381,4.301
			c-0.227,8.873-0.029,8.88-8.747,8.881C1163.853,148.512,1154.358,148.511,1144.863,148.511z"/>
		<path fill="#FFFFFF" d="M1252.911,117.554c1.873-0.262,3.739,0.391,5.485,1.397c5.441,3.134,10.912,6.22,16.274,9.485
			c6.414,3.905,7.889,9.544,4.415,16.12c-5.684,10.759-5.673,10.741-16.169,4.636c-7.851-4.567-15.678-9.181-23.636-13.554
			c-2.307-1.268-2.658-2.275-1.206-4.433c1.842-2.738,3.269-5.753,5.073-8.519C1245.364,119.286,1248.48,117.315,1252.911,117.554z"
			/>
		<path fill="#FFFFFF" d="M1159.747,269.815c11.702,6.76,22.634,13.076,34.125,19.714c-8.389,6.065-16.84,10.602-26.329,13.003
			c-2.913,0.737-5.076-0.271-5.944-3.58C1159.14,289.582,1158.316,280.152,1159.747,269.815z"/>
	</g>
</g>
<g id="Capa_2_1_">
</g>
</svg>
